<svg xmlns="http://www.w3.org/2000/svg" xmlns:xlink="http://www.w3.org/1999/xlink" width="90" height="120" viewBox="0 0 90 120">
  <defs>
    <clipPath id="clip-path">
      <path id="Path_4" data-name="Path 4" d="M8,42H22.595V68.694H8Zm0,0" transform="translate(-8 -42)"/>
    </clipPath>
    <clipPath id="clip-path-2">
      <path id="Path_3" data-name="Path 3" d="M5.555,81.15l17.4-51.009L89.417,52.711l-17.4,51.009Zm0,0" transform="translate(-5.555 -30.141)"/>
    </clipPath>
    <clipPath id="clip-path-4">
      <path id="Path_8" data-name="Path 8" d="M8,43H20.162V67.267H8Zm0,0" transform="translate(-8 -43)"/>
    </clipPath>
    <clipPath id="clip-path-7">
      <path id="Path_12" data-name="Path 12" d="M9,44h7.3V60.987H9Zm0,0" transform="translate(-9 -44)"/>
    </clipPath>
    <clipPath id="clip-path-10">
      <path id="Path_18" data-name="Path 18" d="M9,37H81.973V75.828H9Zm0,0" transform="translate(-9 -37)"/>
    </clipPath>
    <clipPath id="clip-path-13">
      <path id="Path_15" data-name="Path 15" d="M6.73,80.1,23.662,30.473l64.1,21.765L70.829,101.862Zm0,0" transform="translate(-6.73 -30.473)"/>
    </clipPath>
    <clipPath id="clip-path-14">
      <path id="Path_14" data-name="Path 14" d="M6.73,80.086,23.653,30.48l64.08,21.755L70.81,101.841Zm0,0" transform="translate(-6.73 -30.48)"/>
    </clipPath>
    <clipPath id="clip-path-15">
      <path id="Path_22" data-name="Path 22" d="M16,37h7.3v7.28H16Zm0,0" transform="translate(-16 -37)"/>
    </clipPath>
    <clipPath id="clip-path-18">
      <path id="Path_26" data-name="Path 26" d="M13,41H73.811V62.841H13Zm0,0" transform="translate(-13 -41)"/>
    </clipPath>
    <clipPath id="clip-path-21">
      <path id="Path_30" data-name="Path 30" d="M24,42H60.486V56.56H24Zm0,0" transform="translate(-24 -42)"/>
    </clipPath>
    <clipPath id="clip-path-24">
      <path id="Path_34" data-name="Path 34" d="M31,43H50.459v9.707H31Zm0,0" transform="translate(-31 -43)"/>
    </clipPath>
    <clipPath id="clip-path-27">
      <path id="Path_38" data-name="Path 38" d="M12,47H46.054V59.134H12Zm0,0" transform="translate(-12 -47)"/>
    </clipPath>
    <clipPath id="clip-path-30">
      <path id="Path_42" data-name="Path 42" d="M12,40H75.243V59.414H12Zm0,0" transform="translate(-12 -40)"/>
    </clipPath>
    <clipPath id="clip-path-33">
      <path id="Path_46" data-name="Path 46" d="M10,42H34.324V56.56H10Zm0,0" transform="translate(-10 -42)"/>
    </clipPath>
    <clipPath id="clip-path-36">
      <path id="Path_50" data-name="Path 50" d="M11,42H28.027V54.134H11Zm0,0" transform="translate(-11 -42)"/>
    </clipPath>
    <clipPath id="clip-path-39">
      <path id="Path_54" data-name="Path 54" d="M11,44h7.3v4.853H11Zm0,0" transform="translate(-11 -44)"/>
    </clipPath>
    <clipPath id="clip-path-42">
      <path id="Path_58" data-name="Path 58" d="M19,38H62.784V50.134H19Zm0,0" transform="translate(-19 -38)"/>
    </clipPath>
    <clipPath id="clip-path-45">
      <path id="Path_62" data-name="Path 62" d="M19,40h7.3v2.427H19Zm0,0" transform="translate(-19 -40)"/>
    </clipPath>
    <clipPath id="clip-path-48">
      <path id="Path_66" data-name="Path 66" d="M18,38h4.865v4.853H18Zm0,0" transform="translate(-18 -38)"/>
    </clipPath>
    <clipPath id="clip-path-51">
      <path id="Path_70" data-name="Path 70" d="M38,44H55.027V70.694H38Zm0,0" transform="translate(-38 -44)"/>
    </clipPath>
    <clipPath id="clip-path-52">
      <path id="Path_69" data-name="Path 69" d="M23.277,97.21,13.719,44.182l69.1-12.409,9.568,53.037Zm0,0" transform="translate(-13.719 -31.773)"/>
    </clipPath>
    <clipPath id="clip-path-53">
      <path id="Path_68" data-name="Path 68" d="M92.223,84.833,82.664,31.8,13.559,44.2l9.559,53.037Zm0,0" transform="translate(-13.559 -31.805)"/>
    </clipPath>
    <clipPath id="clip-path-54">
      <path id="Path_74" data-name="Path 74" d="M39,45H51.162V66.841H39Zm0,0" transform="translate(-39 -45)"/>
    </clipPath>
    <clipPath id="clip-path-57">
      <path id="Path_78" data-name="Path 78" d="M39,46h9.73V62.987H39Zm0,0" transform="translate(-39 -46)"/>
    </clipPath>
    <clipPath id="clip-path-60">
      <path id="Path_84" data-name="Path 84" d="M14,36H86.973V82.108H14Zm0,0" transform="translate(-14 -36)"/>
    </clipPath>
    <clipPath id="clip-path-63">
      <path id="Path_81" data-name="Path 81" d="M89.488,83.581l-9.3-51.6L13.551,43.947l9.3,51.6Zm0,0" transform="translate(-13.551 -31.984)"/>
    </clipPath>
    <clipPath id="clip-path-64">
      <path id="Path_80" data-name="Path 80" d="M89.477,83.57l-9.3-51.578L13.559,43.946l9.3,51.578Zm0,0" transform="translate(-13.559 -31.992)"/>
    </clipPath>
    <clipPath id="clip-path-65">
      <path id="Path_88" data-name="Path 88" d="M35,38h4.865v4.853H35Zm0,0" transform="translate(-35 -38)"/>
    </clipPath>
    <clipPath id="clip-path-68">
      <path id="Path_92" data-name="Path 92" d="M15,39H73.378V70.548H15Zm0,0" transform="translate(-15 -39)"/>
    </clipPath>
    <clipPath id="clip-path-71">
      <path id="Path_96" data-name="Path 96" d="M15,40H46.622V56.987H15Zm0,0" transform="translate(-15 -40)"/>
    </clipPath>
    <clipPath id="clip-path-74">
      <path id="Path_100" data-name="Path 100" d="M14,41H31.027v9.707H14Zm0,0" transform="translate(-14 -41)"/>
    </clipPath>
    <clipPath id="clip-path-77">
      <path id="Path_104" data-name="Path 104" d="M26,46H57.622V62.987H26Zm0,0" transform="translate(-26 -46)"/>
    </clipPath>
    <clipPath id="clip-path-80">
      <path id="Path_108" data-name="Path 108" d="M15,38H75.811V67.121H15Zm0,0" transform="translate(-15 -38)"/>
    </clipPath>
    <clipPath id="clip-path-83">
      <path id="Path_112" data-name="Path 112" d="M33,42H54.892V58.987H33Zm0,0" transform="translate(-33 -42)"/>
    </clipPath>
    <clipPath id="clip-path-86">
      <path id="Path_116" data-name="Path 116" d="M35,43H52.027V55.134H35Zm0,0" transform="translate(-35 -43)"/>
    </clipPath>
    <clipPath id="clip-path-89">
      <path id="Path_120" data-name="Path 120" d="M39,45h4.865v4.853H39Zm0,0" transform="translate(-39 -45)"/>
    </clipPath>
    <clipPath id="clip-path-92">
      <path id="Path_124" data-name="Path 124" d="M17,36H60.784V52.987H17Zm0,0" transform="translate(-17 -36)"/>
    </clipPath>
    <clipPath id="clip-path-95">
      <path id="Path_128" data-name="Path 128" d="M31,40h7.3v4.853H31Zm0,0" transform="translate(-31 -40)"/>
    </clipPath>
    <clipPath id="clip-path-98">
      <path id="Path_132" data-name="Path 132" d="M33,39h4.865v4.853H33Zm0,0" transform="translate(-33 -39)"/>
    </clipPath>
    <clipPath id="clip-path-101">
      <path id="Path_134" data-name="Path 134" d="M14.715,5.551H68.922V79.187H14.715Zm0,0" transform="translate(-14.715 -5.551)"/>
    </clipPath>
    <clipPath id="clip-path-102">
      <path id="Path_137" data-name="Path 137" d="M19,16H55.486V64.279H19Zm0,0" transform="translate(-19 -16)"/>
    </clipPath>
  </defs>
  <g id="surface1" transform="translate(-8 -5.551)">
    <g id="Group_6" data-name="Group 6" transform="translate(8 94.003)" clip-path="url(#clip-path)">
      <g id="Group_5" data-name="Group 5" transform="translate(-5.948 -28.78)" clip-path="url(#clip-path-2)">
        <g id="Group_4" data-name="Group 4" clip-path="url(#clip-path-2)">
          <path id="Path_1" data-name="Path 1" d="M18.894,53.714c1.692,6.8.912,12.854-1.739,13.518S10.989,62.918,9.3,56.112s-.922-12.854,1.729-13.518l.266-.057c2.623-.275,5.967,4.6,7.6,11.176" transform="translate(-1.478 -12.469)" fill="#c98c4f"/>
        </g>
      </g>
    </g>
    <g id="Group_9" data-name="Group 9" transform="translate(8 96.43)" clip-path="url(#clip-path-4)">
      <g id="Group_8" data-name="Group 8" transform="translate(-5.948 -31.206)" clip-path="url(#clip-path-2)">
        <g id="Group_7" data-name="Group 7" clip-path="url(#clip-path-2)">
          <path id="Path_5" data-name="Path 5" d="M10.876,44.038c-1.292.322-1.758,4.73-.314,10.532s3.915,9.47,5.235,9.138,1.8-4.74.351-10.532c-1.387-5.6-3.782-9.262-5.131-9.167Zm5.112,20.409c-2.3.578-4.893-4.56-6.167-9.688s-1.4-10.892.9-11.47l.2-.028c2.3-.171,4.732,4.768,5.967,9.726,1.273,5.128,1.387,10.892-.9,11.461" transform="translate(-0.738 -11.428)" fill="#ffa347"/>
        </g>
      </g>
    </g>
    <g id="Group_12" data-name="Group 12" transform="translate(10.432 98.857)" clip-path="url(#clip-path-7)">
      <g id="Group_11" data-name="Group 11" transform="translate(-8.38 -33.633)" clip-path="url(#clip-path-2)">
        <g id="Group_10" data-name="Group 10" clip-path="url(#clip-path-2)">
          <path id="Path_9" data-name="Path 9" d="M10.676,45.244c-.361.095-.713,2.673.418,7.223s2.642,6.655,3.041,6.55.751-2.673-.38-7.214c-1.074-4.332-2.547-6.579-3.041-6.569Zm3.649,14.513c-1.634.408-3.306-4.474-3.962-7.109s-1.473-7.735.162-8.143l.133-.028c1.425-.019,2.974,3.687,3.829,7.138.665,2.635,1.473,7.735-.162,8.143" transform="translate(0.194 -9.687)" fill="#ffa347"/>
        </g>
      </g>
    </g>
    <g id="Group_17" data-name="Group 17" transform="translate(10.432 81.87)" clip-path="url(#clip-path-10)">
      <g id="Group_16" data-name="Group 16" transform="translate(-8.38 -16.646)" clip-path="url(#clip-path-2)">
        <g id="Group_15" data-name="Group 15" clip-path="url(#clip-path-2)">
          <g id="Group_14" data-name="Group 14" transform="translate(2.86 0.806)" clip-path="url(#clip-path-13)">
            <g id="Group_13" data-name="Group 13" transform="translate(0 0.019)" clip-path="url(#clip-path-14)">
              <path id="Path_13" data-name="Path 13" d="M78.43,47.652c1.387,5.583.741,10.541-1.435,11.081L15.452,74.4c2.651-.663,3.43-6.721,1.739-13.518-1.634-6.579-4.979-11.451-7.6-11.176L31.453,45.8a1.011,1.011,0,0,0,.494-1.754A32.758,32.758,0,0,0,28.213,41l.019-.047c.019.019.038.019.067.028.846.247,1.8-.483,2.128-1.621a2.44,2.44,0,0,0-.171-1.858L38.7,43.453a3.525,3.525,0,0,0,2.622.578l30.653-5.489c2.176-.54,5.064,3.536,6.452,9.11" transform="translate(-2.635 -20.466)" fill="#b57948"/>
            </g>
          </g>
        </g>
      </g>
    </g>
    <g id="Group_20" data-name="Group 20" transform="translate(27.459 81.87)" clip-path="url(#clip-path-15)">
      <g id="Group_19" data-name="Group 19" transform="translate(-25.408 -16.646)" clip-path="url(#clip-path-2)">
        <g id="Group_18" data-name="Group 18" clip-path="url(#clip-path-2)">
          <path id="Path_19" data-name="Path 19" d="M20.091,39.786c-.333,1.1-1.264,1.811-2.09,1.573-.028-.009-.057-.009-.076-.028a1.857,1.857,0,0,1-.836-2.37,2,2,0,0,1,1.881-1.6h.038a.556.556,0,0,1,.171.038,1.167,1.167,0,0,1,.751.607,2.214,2.214,0,0,1,.162,1.782" transform="translate(10.809 -19.85)" fill="#c98c4f"/>
        </g>
      </g>
    </g>
    <g id="Group_23" data-name="Group 23" transform="translate(20.162 91.577)" clip-path="url(#clip-path-18)">
      <g id="Group_22" data-name="Group 22" transform="translate(-18.11 -26.353)" clip-path="url(#clip-path-2)">
        <g id="Group_21" data-name="Group 21" clip-path="url(#clip-path-2)">
          <path id="Path_23" data-name="Path 23" d="M13.371,61.325a47.862,47.862,0,0,0,7.763-1.63,30.444,30.444,0,0,0,7.25-3.081,18,18,0,0,0,3.06-2.408l.675-.7c.238-.237.485-.5.741-.739.266-.208.532-.427.808-.635l.846-.559a40.413,40.413,0,0,1,7.354-3.213,138.946,138.946,0,0,1,15.44-4.019c5.207-1.062,10.442-1.972,15.706-2.654-2.613.5-5.216,1-7.81,1.545-2.6.531-5.188,1.081-7.772,1.687a154.015,154.015,0,0,0-15.317,4.162,38.234,38.234,0,0,0-7.24,3.09l-.817.522c-.257.19-.5.4-.76.588-.228.218-.447.436-.675.664l-.713.73A13.687,13.687,0,0,1,30.37,56c-.532.408-1.121.749-1.682,1.119a37.051,37.051,0,0,1-15.317,4.209" transform="translate(5.642 -13.672)" fill="#ffa347"/>
        </g>
      </g>
    </g>
    <g id="Group_26" data-name="Group 26" transform="translate(46.919 94.003)" clip-path="url(#clip-path-21)">
      <g id="Group_25" data-name="Group 25" transform="translate(-44.867 -28.78)" clip-path="url(#clip-path-2)">
        <g id="Group_24" data-name="Group 24" clip-path="url(#clip-path-2)">
          <path id="Path_27" data-name="Path 27" d="M57.312,42.5c-2.689.512-5.387,1.024-8.067,1.593-2.689.54-5.368,1.118-8.029,1.763s-5.311,1.3-7.924,2.1c-1.3.408-2.594.844-3.848,1.356a12.39,12.39,0,0,0-3.468,1.915c-.485.407-.77.948-.523,1.317a2.533,2.533,0,0,0,1.511.825,19.306,19.306,0,0,0,4,.427c2.718.066,5.454-.133,8.181-.323,2.727-.208,5.454-.5,8.172-.834,2.718-.3,5.435-.673,8.153-1.043-5.378,1.062-10.813,1.9-16.276,2.455a70.273,70.273,0,0,1-8.247.436,19.482,19.482,0,0,1-4.162-.417,5.6,5.6,0,0,1-1.036-.36,2.048,2.048,0,0,1-.941-.787,1.439,1.439,0,0,1-.057-1.318,2.676,2.676,0,0,1,.712-.938,13.144,13.144,0,0,1,3.706-2.029c1.292-.512,2.6-.948,3.924-1.337q3.962-1.18,8-2.019,8.053-1.72,16.219-2.787" transform="translate(21.752 -12.507)" fill="#ffa347"/>
        </g>
      </g>
    </g>
    <g id="Group_29" data-name="Group 29" transform="translate(63.946 96.43)" clip-path="url(#clip-path-24)">
      <g id="Group_28" data-name="Group 28" transform="translate(-61.894 -31.206)" clip-path="url(#clip-path-2)">
        <g id="Group_27" data-name="Group 27" transform="translate(0)" clip-path="url(#clip-path-2)">
          <path id="Path_31" data-name="Path 31" d="M47.449,43.77c-1.33.152-2.651.284-3.972.455s-2.632.332-3.943.54c-1.3.227-2.613.446-3.886.777a13.479,13.479,0,0,0-1.843.6,4.414,4.414,0,0,0-.817.417c-.238.171-.456.36-.494.54a.705.705,0,0,0,.18.569,1.983,1.983,0,0,0,.675.464,6.272,6.272,0,0,0,1.824.436,24.587,24.587,0,0,0,3.924.047c1.321-.066,2.641-.208,3.962-.379,1.321-.142,2.632-.351,3.953-.55A48.044,48.044,0,0,1,39.144,49.2a22.16,22.16,0,0,1-4.048.085,6.653,6.653,0,0,1-2.052-.474,2.63,2.63,0,0,1-.941-.664,1.377,1.377,0,0,1-.333-1.27,1.8,1.8,0,0,1,.8-.938,5.028,5.028,0,0,1,.95-.493,12.56,12.56,0,0,1,1.957-.6,33.87,33.87,0,0,1,3.981-.663,68.274,68.274,0,0,1,7.991-.417" transform="translate(31.928 -10.697)" fill="#ffa347"/>
        </g>
      </g>
    </g>
    <g id="Group_32" data-name="Group 32" transform="translate(17.73 106.137)" clip-path="url(#clip-path-27)">
      <g id="Group_31" data-name="Group 31" transform="translate(-15.678 -40.913)" clip-path="url(#clip-path-2)">
        <g id="Group_30" data-name="Group 30" clip-path="url(#clip-path-2)">
          <path id="Path_35" data-name="Path 35" d="M44.1,47.164c-1.378.3-2.756.607-4.1.976-1.359.341-2.708.73-4.019,1.194a18.4,18.4,0,0,0-3.734,1.735,3.983,3.983,0,0,0-1.359,1.337l-.257.483a2.723,2.723,0,0,1-.37.484,5.256,5.256,0,0,1-.893.711A16.813,16.813,0,0,1,25.4,55.743a42.2,42.2,0,0,1-4.133.986,69.559,69.559,0,0,1-8.371,1.109c1.378-.256,2.765-.5,4.143-.787s2.746-.569,4.1-.891c1.359-.341,2.717-.673,4.038-1.109a16.79,16.79,0,0,0,3.782-1.6,4.391,4.391,0,0,0,.76-.6,2.174,2.174,0,0,0,.276-.341l.095-.19.143-.265a4.521,4.521,0,0,1,1.615-1.583A16.607,16.607,0,0,1,35.8,48.785a44.517,44.517,0,0,1,8.3-1.621" transform="translate(4.954 -5.853)" fill="#ffa347"/>
        </g>
      </g>
    </g>
    <g id="Group_35" data-name="Group 35" transform="translate(17.73 89.15)" clip-path="url(#clip-path-30)">
      <g id="Group_34" data-name="Group 34" transform="translate(-15.678 -23.926)" clip-path="url(#clip-path-2)">
        <g id="Group_33" data-name="Group 33" clip-path="url(#clip-path-2)">
          <path id="Path_39" data-name="Path 39" d="M12.887,58.58a61.319,61.319,0,0,0,7.7-2.142A41.592,41.592,0,0,0,27.852,53.2c.579-.332,1.121-.711,1.682-1.062.532-.37,1.055-.787,1.577-1.175.485-.436.979-.872,1.444-1.337l1.292-1.5a10.645,10.645,0,0,1,3.335-2.427A29.1,29.1,0,0,1,40.945,44.2a85.063,85.063,0,0,1,15.8-2.92,158.74,158.74,0,0,1,16.02-.834c-2.67.161-5.33.341-7.991.588-2.661.228-5.311.483-7.963.825a89.742,89.742,0,0,0-15.63,3.072,26.117,26.117,0,0,0-3.677,1.431,10.047,10.047,0,0,0-3.135,2.218L33.04,50.1c-.485.474-1.007.919-1.511,1.374-.551.4-1.083.815-1.644,1.194-.589.341-1.15.72-1.748,1.033a48.137,48.137,0,0,1-15.25,4.872" transform="translate(4.948 -15.439)" fill="#ffa347"/>
        </g>
      </g>
    </g>
    <g id="Group_38" data-name="Group 38" transform="translate(12.865 94.003)" clip-path="url(#clip-path-33)">
      <g id="Group_37" data-name="Group 37" transform="translate(-10.813 -28.78)" clip-path="url(#clip-path-2)">
        <g id="Group_36" data-name="Group 36" clip-path="url(#clip-path-2)">
          <path id="Path_43" data-name="Path 43" d="M10.8,44.715a94.062,94.062,0,0,1,10.366-2.171,42.875,42.875,0,0,1,5.292-.493,15.192,15.192,0,0,1,2.7.133,5.22,5.22,0,0,1,1.368.36,2.917,2.917,0,0,1,.656.389,3,3,0,0,1,.285.322,2.679,2.679,0,0,1,.19.407,5.4,5.4,0,0,1-.028,2.806,5.991,5.991,0,0,1-1.406,2.4,12.929,12.929,0,0,1-4.485,2.976A35.947,35.947,0,0,1,15.456,54.4a51.889,51.889,0,0,0,5.131-1.251A33.239,33.239,0,0,0,25.5,51.313a13.42,13.42,0,0,0,4.209-2.91,5.315,5.315,0,0,0,1.216-2.123,4.7,4.7,0,0,0,0-2.408c-.057-.275-.351-.493-.7-.645a4.7,4.7,0,0,0-1.178-.332,16.484,16.484,0,0,0-2.575-.152c-1.739.019-3.487.2-5.226.379s-3.487.446-5.226.72c-1.748.256-3.478.569-5.216.872" transform="translate(1.96 -13.158)" fill="#ffa347"/>
        </g>
      </g>
    </g>
    <g id="Group_41" data-name="Group 41" transform="translate(15.297 94.003)" clip-path="url(#clip-path-36)">
      <g id="Group_40" data-name="Group 40" transform="translate(-13.245 -28.78)" clip-path="url(#clip-path-2)">
        <g id="Group_39" data-name="Group 39" clip-path="url(#clip-path-2)">
          <path id="Path_47" data-name="Path 47" d="M11.3,45.034a55.382,55.382,0,0,1,6.68-1.649,29.456,29.456,0,0,1,3.43-.455,13.542,13.542,0,0,1,1.758-.019,3.532,3.532,0,0,1,1.843.522,2.374,2.374,0,0,1,.219.218c.057.095.1.2.152.294a1.209,1.209,0,0,1,.019.635,2.179,2.179,0,0,1-.523.882A6.817,6.817,0,0,1,23.5,46.617a22.781,22.781,0,0,1-3.05,1.668,49.324,49.324,0,0,1-6.423,2.474c1.036-.483,2.081-.957,3.107-1.46s2.052-1,3.05-1.536A30.5,30.5,0,0,0,23.1,46.029a7,7,0,0,0,1.226-1.052,1.529,1.529,0,0,0,.351-.578.332.332,0,0,0-.133-.379,3.057,3.057,0,0,0-1.425-.37,13.925,13.925,0,0,0-1.663,0c-1.121.038-2.252.18-3.383.313s-2.252.313-3.383.512c-1.131.161-2.252.379-3.383.559" transform="translate(2.682 -11.951)" fill="#ffa347"/>
        </g>
      </g>
    </g>
    <g id="Group_44" data-name="Group 44" transform="translate(15.297 98.857)" clip-path="url(#clip-path-39)">
      <g id="Group_43" data-name="Group 43" transform="translate(-13.245 -33.633)" clip-path="url(#clip-path-2)">
        <g id="Group_42" data-name="Group 42" clip-path="url(#clip-path-2)">
          <path id="Path_51" data-name="Path 51" d="M11.762,45.169a8.247,8.247,0,0,1,1.815-.777,8.656,8.656,0,0,1,.979-.237,3.241,3.241,0,0,1,.541-.038,2.126,2.126,0,0,1,.314.028.7.7,0,0,1,.447.3.557.557,0,0,1,.057.332.551.551,0,0,1-.067.237,1.485,1.485,0,0,1-.18.284,2.89,2.89,0,0,1-.39.379,6.2,6.2,0,0,1-.827.588,8.263,8.263,0,0,1-1.786.825c.466-.474.96-.891,1.444-1.308.228-.218.475-.417.684-.635a2.836,2.836,0,0,0,.285-.313c.114-.085.047-.228.114-.019.066.1.076.066.038.066s-.1-.019-.162-.028c-.133,0-.276.009-.428.019-.3.009-.618.066-.941.095-.627.076-1.273.161-1.938.2" transform="translate(3.336 -10.2)" fill="#ffa347"/>
        </g>
      </g>
    </g>
    <g id="Group_47" data-name="Group 47" transform="translate(34.757 84.296)" clip-path="url(#clip-path-42)">
      <g id="Group_46" data-name="Group 46" transform="translate(-32.705 -19.073)" clip-path="url(#clip-path-2)">
        <g id="Group_45" data-name="Group 45" clip-path="url(#clip-path-2)">
          <path id="Path_55" data-name="Path 55" d="M19.008,44.417a9.154,9.154,0,0,0,4.855,2.474,3.9,3.9,0,0,0,2.565-.531,2.38,2.38,0,0,0,.551-.379,3.136,3.136,0,0,0,.494-.446l.437-.512a1.744,1.744,0,0,1,.646-.5,15.168,15.168,0,0,1,2.727-.872c.922-.237,1.834-.436,2.755-.635,1.834-.389,3.677-.739,5.52-1.09,3.7-.626,7.392-1.242,11.1-1.763s7.43-1.024,11.155-1.4l-5.53,1.014-5.53.967c-3.687.645-7.383,1.242-11.06,1.934-1.843.322-3.687.654-5.52,1.024-.912.18-1.824.37-2.727.588a20.294,20.294,0,0,0-2.641.758.9.9,0,0,0-.238.123c-.047.009-.143.123-.218.209l-.5.54a3.727,3.727,0,0,1-.56.464,2.379,2.379,0,0,1-.618.4,4.285,4.285,0,0,1-2.851.483,7.22,7.22,0,0,1-2.642-1.052,10.936,10.936,0,0,1-2.166-1.792" transform="translate(13.716 -17.846)" fill="#ffa347"/>
        </g>
      </g>
    </g>
    <g id="Group_50" data-name="Group 50" transform="translate(34.757 89.15)" clip-path="url(#clip-path-45)">
      <g id="Group_49" data-name="Group 49" transform="translate(-32.705 -23.926)" clip-path="url(#clip-path-2)">
        <g id="Group_48" data-name="Group 48" clip-path="url(#clip-path-2)">
          <path id="Path_59" data-name="Path 59" d="M19.727,40.477a6.421,6.421,0,0,0,2.071.474,3.492,3.492,0,0,0,.979-.114c.342-.076.675-.218,1.074-.341a2.135,2.135,0,0,1-.836.882,2.241,2.241,0,0,1-1.235.332,2.423,2.423,0,0,1-1.216-.351,2.2,2.2,0,0,1-.836-.881" transform="translate(14.746 -15.394)" fill="#ffa347"/>
        </g>
      </g>
    </g>
    <g id="Group_53" data-name="Group 53" transform="translate(32.324 84.296)" clip-path="url(#clip-path-48)">
      <g id="Group_52" data-name="Group 52" transform="translate(-30.272 -19.073)" clip-path="url(#clip-path-2)">
        <g id="Group_51" data-name="Group 51" clip-path="url(#clip-path-2)">
          <path id="Path_63" data-name="Path 63" d="M18.582,41.521a6.351,6.351,0,0,0,1.872-1.014,3.3,3.3,0,0,0,.656-.739c.209-.284.361-.607.58-.967a2.149,2.149,0,0,1-.038,1.223,2.277,2.277,0,0,1-.7,1.062,2.424,2.424,0,0,1-1.15.54,2.126,2.126,0,0,1-1.216-.1" transform="translate(13.106 -17.785)" fill="#ffa347"/>
        </g>
      </g>
    </g>
    <g id="Group_56" data-name="Group 56" transform="translate(80.973 98.857)" clip-path="url(#clip-path-51)">
      <g id="Group_55" data-name="Group 55" transform="translate(-59.062 -29.671)" clip-path="url(#clip-path-52)">
        <g id="Group_54" data-name="Group 54" transform="translate(-0.39 0.076)" clip-path="url(#clip-path-53)">
          <path id="Path_67" data-name="Path 67" d="M40.662,54.47c-2.689,6.474-2.832,12.579-.3,13.631s6.746-3.356,9.435-9.821,2.841-12.579.314-13.631l-.247-.085c-2.556-.673-6.594,3.65-9.2,9.906" transform="translate(22.24 -13.699)" fill="#c98c4f"/>
        </g>
      </g>
    </g>
    <g id="Group_59" data-name="Group 59" transform="translate(83.405 101.283)" clip-path="url(#clip-path-54)">
      <g id="Group_58" data-name="Group 58" transform="translate(-61.495 -32.097)" clip-path="url(#clip-path-52)">
        <g id="Group_57" data-name="Group 57" transform="translate(-0.39 0.076)" clip-path="url(#clip-path-53)">
          <path id="Path_71" data-name="Path 71" d="M48.409,46.016c1.235.512,1.035,4.948-1.254,10.465s-5.292,8.778-6.556,8.256-1.064-4.958,1.235-10.475c2.214-5.327,5.121-8.588,6.452-8.295ZM40.3,65.439c2.186.91,5.521-3.782,7.554-8.664s3-10.56.827-11.47l-.2-.066c-2.252-.512-5.4,4.01-7.354,8.731-2.034,4.882-3.012,10.56-.827,11.47" transform="translate(22.978 -12.695)" fill="#ffa347"/>
        </g>
      </g>
    </g>
    <g id="Group_62" data-name="Group 62" transform="translate(83.405 103.71)" clip-path="url(#clip-path-57)">
      <g id="Group_61" data-name="Group 61" transform="translate(-61.495 -34.524)" clip-path="url(#clip-path-52)">
        <g id="Group_60" data-name="Group 60" transform="translate(-0.39 0.076)" clip-path="url(#clip-path-53)">
          <path id="Path_75" data-name="Path 75" d="M46.219,47.139c.351.152.3,2.749-1.492,7.072s-3.611,6.19-3.991,6.038S40.4,57.491,42.2,53.159c1.71-4.114,3.506-6.114,3.981-6.029ZM40.442,60.951C42,61.6,44.385,57.017,45.43,54.5s2.6-7.432,1.055-8.077l-.124-.038c-1.406-.246-3.5,3.195-4.865,6.475-1.045,2.512-2.613,7.432-1.055,8.086" transform="translate(24.008 -11.013)" fill="#ffa347"/>
        </g>
      </g>
    </g>
    <g id="Group_67" data-name="Group 67" transform="translate(22.595 79.443)" clip-path="url(#clip-path-60)">
      <g id="Group_66" data-name="Group 66" transform="translate(-0.684 -10.257)" clip-path="url(#clip-path-52)">
        <g id="Group_65" data-name="Group 65" transform="translate(-0.39 0.076)" clip-path="url(#clip-path-53)">
          <g id="Group_64" data-name="Group 64" transform="translate(-0.019 0.436)" clip-path="url(#clip-path-63)">
            <g id="Group_63" data-name="Group 63" transform="translate(0.019 0.019)" clip-path="url(#clip-path-64)">
              <path id="Path_79" data-name="Path 79" d="M16.355,44.254c-2.2,5.308-2.309,10.3-.237,11.167L74.62,80.1c-2.528-1.052-2.385-7.157.3-13.631,2.6-6.257,6.642-10.579,9.2-9.906L63.085,49.42a1,1,0,0,1-.228-1.791,33.121,33.121,0,0,1,4.152-2.474L67,45.117c-.019.009-.048.009-.076.019-.874.114-1.7-.758-1.853-1.924a2.355,2.355,0,0,1,.447-1.811l-9.255,4.626a3.548,3.548,0,0,1-2.68.18L24.1,36.216c-2.062-.862-5.539,2.74-7.744,8.039" transform="translate(-12.023 -26.149)" fill="#b57948"/>
            </g>
          </g>
        </g>
      </g>
    </g>
    <g id="Group_70" data-name="Group 70" transform="translate(73.676 84.296)" clip-path="url(#clip-path-65)">
      <g id="Group_69" data-name="Group 69" transform="translate(-51.765 -15.11)" clip-path="url(#clip-path-52)">
        <g id="Group_68" data-name="Group 68" transform="translate(-0.39 0.076)" clip-path="url(#clip-path-53)">
          <path id="Path_85" data-name="Path 85" d="M35.265,40.419c.162,1.128.979,1.972,1.834,1.867.028-.009.047,0,.076-.019a1.854,1.854,0,0,0,1.178-2.218,1.992,1.992,0,0,0-1.615-1.867c-.009-.009-.019,0-.038-.009-.057,0-.114.009-.171.009a1.192,1.192,0,0,0-.836.493,2.228,2.228,0,0,0-.428,1.744" transform="translate(17.498 -22.72)" fill="#c98c4f"/>
        </g>
      </g>
    </g>
    <g id="Group_73" data-name="Group 73" transform="translate(25.027 86.723)" clip-path="url(#clip-path-68)">
      <g id="Group_72" data-name="Group 72" transform="translate(-3.116 -17.537)" clip-path="url(#clip-path-52)">
        <g id="Group_71" data-name="Group 71" transform="translate(-0.39 0.076)" clip-path="url(#clip-path-53)">
          <path id="Path_89" data-name="Path 89" d="M71.366,67.759A46.921,46.921,0,0,1,63.935,65a31.122,31.122,0,0,1-6.708-4.133,17.861,17.861,0,0,1-2.66-2.834l-.561-.8c-.2-.265-.409-.569-.618-.834-.238-.247-.466-.512-.713-.749l-.76-.682A39.016,39.016,0,0,0,45.131,50.7,138.474,138.474,0,0,0,30.47,44.42c-4.988-1.83-10.024-3.507-15.127-4.967,2.5.882,5,1.763,7.487,2.692q3.734,1.365,7.43,2.825a153.568,153.568,0,0,1,14.518,6.4,39.223,39.223,0,0,1,6.7,4.133l.732.645c.228.228.437.464.656.692.2.247.38.493.57.758l.6.825a13.669,13.669,0,0,0,1.321,1.545c.475.483,1.007.9,1.5,1.355a36.955,36.955,0,0,0,14.509,6.437" transform="translate(-11.001 -20.892)" fill="#ffa347"/>
        </g>
      </g>
    </g>
    <g id="Group_76" data-name="Group 76" transform="translate(25.027 89.15)" clip-path="url(#clip-path-71)">
      <g id="Group_75" data-name="Group 75" transform="translate(-3.116 -19.964)" clip-path="url(#clip-path-52)">
        <g id="Group_74" data-name="Group 74" transform="translate(-0.39 0.076)" clip-path="url(#clip-path-53)">
          <path id="Path_93" data-name="Path 93" d="M15.051,40.234c2.594.91,5.178,1.811,7.744,2.777,2.575.938,5.131,1.905,7.668,2.939s5.065,2.086,7.525,3.271c1.226.588,2.442,1.213,3.6,1.905a12.534,12.534,0,0,1,3.145,2.417c.418.474.618,1.043.323,1.384a2.6,2.6,0,0,1-1.625.578,18.528,18.528,0,0,1-4.019-.171c-2.7-.341-5.368-.938-8.038-1.536-2.66-.616-5.311-1.308-7.953-2.038-2.651-.711-5.274-1.479-7.905-2.256q7.739,2.787,15.725,4.863a72.762,72.762,0,0,0,8.086,1.659,19.761,19.761,0,0,0,4.181.208,5.722,5.722,0,0,0,1.083-.208,2.089,2.089,0,0,0,1.045-.635,1.472,1.472,0,0,0,.257-1.3,2.8,2.8,0,0,0-.57-1.033A13.123,13.123,0,0,0,41.96,50.5c-1.2-.7-2.432-1.317-3.677-1.905q-3.734-1.749-7.6-3.185Q22.97,42.5,15.051,40.234" transform="translate(-11.421 -19.778)" fill="#ffa347"/>
        </g>
      </g>
    </g>
    <g id="Group_79" data-name="Group 79" transform="translate(22.595 91.577)" clip-path="url(#clip-path-74)">
      <g id="Group_78" data-name="Group 78" transform="translate(-0.684 -22.39)" clip-path="url(#clip-path-52)">
        <g id="Group_77" data-name="Group 77" transform="translate(-0.39 0.076)" clip-path="url(#clip-path-53)">
          <path id="Path_97" data-name="Path 97" d="M14.824,41.473c1.292.341,2.584.673,3.858,1.043,1.283.351,2.565.711,3.82,1.119s2.518.834,3.725,1.346a13.453,13.453,0,0,1,1.739.862,4.026,4.026,0,0,1,.741.54,1.162,1.162,0,0,1,.409.607.652.652,0,0,1-.266.531,2.122,2.122,0,0,1-.732.37,6.391,6.391,0,0,1-1.872.152,24.865,24.865,0,0,1-3.886-.54c-1.292-.265-2.584-.6-3.858-.957-1.283-.341-2.556-.739-3.829-1.137a47.91,47.91,0,0,0,7.554,2.664,20.687,20.687,0,0,0,3.991.692,6.626,6.626,0,0,0,2.1-.161,2.748,2.748,0,0,0,1.026-.512,1.4,1.4,0,0,0,.523-1.213,1.817,1.817,0,0,0-.646-1.043,4.933,4.933,0,0,0-.874-.626,13.187,13.187,0,0,0-1.843-.891,35.32,35.32,0,0,0-3.829-1.242,65.435,65.435,0,0,0-7.848-1.6" transform="translate(-11.964 -18.011)" fill="#ffa347"/>
        </g>
      </g>
    </g>
    <g id="Group_82" data-name="Group 82" transform="translate(51.784 103.71)" clip-path="url(#clip-path-77)">
      <g id="Group_81" data-name="Group 81" transform="translate(-29.873 -34.524)" clip-path="url(#clip-path-52)">
        <g id="Group_80" data-name="Group 80" transform="translate(-0.39 0.076)" clip-path="url(#clip-path-53)">
          <path id="Path_101" data-name="Path 101" d="M26.555,46.691c1.311.5,2.622,1,3.905,1.574,1.292.54,2.565,1.128,3.8,1.782a18.251,18.251,0,0,1,3.43,2.275,4.11,4.11,0,0,1,1.15,1.517l.171.521a2.833,2.833,0,0,0,.295.531,5.471,5.471,0,0,0,.779.834,16.8,16.8,0,0,0,3.687,2.237,41.6,41.6,0,0,0,3.934,1.593A68.971,68.971,0,0,0,55.82,61.9c-1.33-.455-2.66-.91-3.981-1.4-1.321-.464-2.632-.957-3.934-1.488-1.283-.54-2.584-1.071-3.829-1.7a16.641,16.641,0,0,1-3.487-2.152,4.609,4.609,0,0,1-.665-.7,1.946,1.946,0,0,1-.219-.379l-.076-.2-.086-.284a4.63,4.63,0,0,0-1.368-1.811,17.2,17.2,0,0,0-3.658-2.256,44.5,44.5,0,0,0-7.962-2.834" transform="translate(5.057 -10.565)" fill="#ffa347"/>
        </g>
      </g>
    </g>
    <g id="Group_85" data-name="Group 85" transform="translate(25.027 84.296)" clip-path="url(#clip-path-80)">
      <g id="Group_84" data-name="Group 84" transform="translate(-3.116 -15.11)" clip-path="url(#clip-path-52)">
        <g id="Group_83" data-name="Group 83" transform="translate(-0.39 0.076)" clip-path="url(#clip-path-53)">
          <path id="Path_105" data-name="Path 105" d="M72.4,65.144a61.267,61.267,0,0,1-7.288-3.271A41.923,41.923,0,0,1,58.4,57.589c-.513-.408-1-.863-1.5-1.289-.475-.455-.922-.938-1.387-1.4-.409-.5-.836-1-1.226-1.536l-1.045-1.678a10.635,10.635,0,0,0-2.936-2.891A27.7,27.7,0,0,0,46.8,46.745a83.648,83.648,0,0,0-15.184-5.251,156.256,156.256,0,0,0-15.706-3.2c2.613.55,5.216,1.128,7.81,1.763q3.891.924,7.744,2a90.8,90.8,0,0,1,15,5.366,27.137,27.137,0,0,1,3.42,1.972,10.245,10.245,0,0,1,2.765,2.654l1.083,1.706c.409.55.855,1.071,1.292,1.592.485.474.95.967,1.444,1.422.532.427,1.036.882,1.568,1.289A48.2,48.2,0,0,0,72.4,65.144" transform="translate(-10.19 -22.553)" fill="#ffa347"/>
        </g>
      </g>
    </g>
    <g id="Group_88" data-name="Group 88" transform="translate(68.811 94.003)" clip-path="url(#clip-path-83)">
      <g id="Group_87" data-name="Group 87" transform="translate(-46.9 -24.817)" clip-path="url(#clip-path-52)">
        <g id="Group_86" data-name="Group 86" transform="translate(-0.39 0.076)" clip-path="url(#clip-path-53)">
          <path id="Path_109" data-name="Path 109" d="M54.213,48.027a93.547,93.547,0,0,0-9.92-3.687,41.393,41.393,0,0,0-5.159-1.28,15.762,15.762,0,0,0-2.689-.275,5.6,5.6,0,0,0-1.406.152,2.831,2.831,0,0,0-.712.294c-.114.085-.219.18-.333.275-.086.114-.162.247-.247.37a5.491,5.491,0,0,0-.39,2.787,6.087,6.087,0,0,0,1.036,2.578,13.058,13.058,0,0,0,3.991,3.612,35.981,35.981,0,0,0,9.777,4.057,49.759,49.759,0,0,1-4.884-2,33.205,33.205,0,0,1-4.58-2.55,13.7,13.7,0,0,1-3.734-3.5,5.452,5.452,0,0,1-.884-2.294,4.642,4.642,0,0,1,.371-2.379,1.071,1.071,0,0,1,.789-.531,5.033,5.033,0,0,1,1.216-.152,16.878,16.878,0,0,1,2.565.237c1.72.275,3.42.72,5.112,1.157s3.383.957,5.065,1.488,3.345,1.081,5.017,1.64" transform="translate(14.741 -16.138)" fill="#ffa347"/>
        </g>
      </g>
    </g>
    <g id="Group_91" data-name="Group 91" transform="translate(73.676 96.43)" clip-path="url(#clip-path-86)">
      <g id="Group_90" data-name="Group 90" transform="translate(-51.765 -27.244)" clip-path="url(#clip-path-52)">
        <g id="Group_89" data-name="Group 89" transform="translate(-0.39 0.076)" clip-path="url(#clip-path-53)">
          <path id="Path_113" data-name="Path 113" d="M49.488,47.783a56.31,56.31,0,0,0-6.357-2.626,32.634,32.634,0,0,0-3.326-.967,13.043,13.043,0,0,0-1.739-.275,3.511,3.511,0,0,0-1.9.237c-.085.057-.162.123-.247.18a2.784,2.784,0,0,0-.19.275,1.187,1.187,0,0,0-.114.616,2.181,2.181,0,0,0,.38.957,6.563,6.563,0,0,0,1.2,1.346,22.705,22.705,0,0,0,2.765,2.114,48.9,48.9,0,0,0,5.977,3.394c-.95-.635-1.91-1.251-2.851-1.905-.95-.635-1.881-1.289-2.793-1.972a28.806,28.806,0,0,1-2.6-2.152,7.079,7.079,0,0,1-1.064-1.223,1.453,1.453,0,0,1-.256-.616.325.325,0,0,1,.19-.36,3.035,3.035,0,0,1,1.454-.152,14.223,14.223,0,0,1,1.653.247c1.1.208,2.2.512,3.3.815s2.176.645,3.269,1c1.093.332,2.166.711,3.259,1.062" transform="translate(18.03 -14.567)" fill="#ffa347"/>
        </g>
      </g>
    </g>
    <g id="Group_94" data-name="Group 94" transform="translate(83.405 101.283)" clip-path="url(#clip-path-89)">
      <g id="Group_93" data-name="Group 93" transform="translate(-61.495 -32.097)" clip-path="url(#clip-path-52)">
        <g id="Group_92" data-name="Group 92" transform="translate(-0.39 0.076)" clip-path="url(#clip-path-53)">
          <path id="Path_117" data-name="Path 117" d="M43.128,47.1a9.036,9.036,0,0,0-1.682-1.043,7.159,7.159,0,0,0-.922-.37,3.09,3.09,0,0,0-.532-.123,1.624,1.624,0,0,0-.314-.009.613.613,0,0,0-.485.227.516.516,0,0,0-.1.323.422.422,0,0,0,.029.237,1.15,1.15,0,0,0,.133.3,3.38,3.38,0,0,0,.323.446,7.138,7.138,0,0,0,.731.692,8.059,8.059,0,0,0,1.653,1.09c-.4-.54-.827-1.024-1.235-1.507-.2-.247-.409-.483-.589-.73a3.139,3.139,0,0,1-.228-.351c-.1-.1-.009-.237-.114-.038-.086.085-.086.057-.047.057a.455.455,0,0,1,.162,0,4.1,4.1,0,0,1,.428.076c.295.057.6.161.912.237.608.171,1.235.351,1.881.483" transform="translate(23.004 -12.189)" fill="#ffa347"/>
        </g>
      </g>
    </g>
    <g id="Group_97" data-name="Group 97" transform="translate(29.892 79.443)" clip-path="url(#clip-path-92)">
      <g id="Group_96" data-name="Group 96" transform="translate(-7.981 -10.257)" clip-path="url(#clip-path-52)">
        <g id="Group_95" data-name="Group 95" transform="translate(-0.39 0.076)" clip-path="url(#clip-path-53)">
          <path id="Path_121" data-name="Path 121" d="M58.531,48.732a9.3,9.3,0,0,1-5.178,1.725,3.935,3.935,0,0,1-2.461-.91,2.391,2.391,0,0,1-.475-.455,3.6,3.6,0,0,1-.428-.512L49.628,48a1.808,1.808,0,0,0-.551-.6,16.621,16.621,0,0,0-2.575-1.27c-.874-.36-1.748-.692-2.623-1.024-1.758-.663-3.525-1.289-5.3-1.905-3.554-1.176-7.117-2.332-10.708-3.4s-7.193-2.114-10.822-3.052l5.321,1.83,5.321,1.782c3.554,1.185,7.117,2.332,10.651,3.564,1.767.588,3.544,1.194,5.3,1.83.874.323,1.748.645,2.613,1a19.307,19.307,0,0,1,2.489,1.137.756.756,0,0,1,.219.161c.047.019.124.142.19.237l.409.607a4.458,4.458,0,0,0,.494.55,2.686,2.686,0,0,0,.551.483,4.244,4.244,0,0,0,2.736.9,7.252,7.252,0,0,0,2.774-.645,10.742,10.742,0,0,0,2.413-1.45" transform="translate(-8.562 -24.749)" fill="#ffa347"/>
        </g>
      </g>
    </g>
    <g id="Group_100" data-name="Group 100" transform="translate(63.946 89.15)" clip-path="url(#clip-path-95)">
      <g id="Group_99" data-name="Group 99" transform="translate(-42.035 -19.964)" clip-path="url(#clip-path-52)">
        <g id="Group_98" data-name="Group 98" transform="translate(-0.39 0.076)" clip-path="url(#clip-path-53)">
          <path id="Path_125" data-name="Path 125" d="M35.881,41.324a6.417,6.417,0,0,1-2.119.161,3.456,3.456,0,0,1-.95-.256c-.333-.133-.637-.322-1.007-.5a2.214,2.214,0,0,0,.693,1,2.258,2.258,0,0,0,1.169.512,2.532,2.532,0,0,0,1.254-.171,2.094,2.094,0,0,0,.96-.749" transform="translate(12.578 -19.076)" fill="#ffa347"/>
        </g>
      </g>
    </g>
    <g id="Group_103" data-name="Group 103" transform="translate(68.811 86.723)" clip-path="url(#clip-path-98)">
      <g id="Group_102" data-name="Group 102" transform="translate(-46.9 -17.537)" clip-path="url(#clip-path-52)">
        <g id="Group_101" data-name="Group 101" transform="translate(-0.39 0.076)" clip-path="url(#clip-path-53)">
          <path id="Path_129" data-name="Path 129" d="M36.37,42.454a6.647,6.647,0,0,1-1.7-1.28,3.942,3.942,0,0,1-.542-.834c-.162-.313-.256-.654-.418-1.043a2.117,2.117,0,0,0-.152,1.213,2.325,2.325,0,0,0,.541,1.156,2.454,2.454,0,0,0,1.055.711,2.133,2.133,0,0,0,1.216.076" transform="translate(15.044 -21.115)" fill="#ffa347"/>
        </g>
      </g>
    </g>
    <g id="Group_104" data-name="Group 104" transform="translate(24.333 5.551)" clip-path="url(#clip-path-101)">
      <path id="Path_133" data-name="Path 133" d="M42.27,78.179c-7.468,0-25.921-1.166-27.555-22.485,0,0,4.779,8.494,4.789,7.5.019-3.242-4.789-15.11,7.231-23.2,14.718-9.887,10.281-22.021,6.775-22.248,0,0,9.416-.957,10.271,11.575.475,6.806,6.195-12.864,2.8-23.755,0,0,17.2,9.129,15.06,31.623,0,0,2.661-5.1,7.126-2.379,0,0-2.8.967-1.872,8.465s5.026,34.9-24.628,34.9" transform="translate(-14.715 -5.528)" fill="#f0473a"/>
    </g>
    <g id="Group_105" data-name="Group 105" transform="translate(34.757 30.908)" clip-path="url(#clip-path-102)">
      <path id="Path_135" data-name="Path 135" d="M33.377,62.231c-4.827-.218-14.005-1.289-14.005-13.356s12.02-13.7,12.02-24.827c0,0,5.72,1.991,5.14,7.5,0,0,11.212-7.024,10.271-15.347,0,0,24.248,47.757-13.426,46.032" transform="translate(-18.468 -15.716)" fill="#ffa347"/>
      <path id="Path_136" data-name="Path 136" d="M33.377,62.231c-4.827-.218-14.005-1.289-14.005-13.356s12.02-13.7,12.02-24.827c0,0,5.72,1.991,5.14,7.5,0,0,11.212-7.024,10.271-15.347,0,0,24.248,47.757-13.426,46.032" transform="translate(-18.468 -15.716)" fill="#ffa347"/>
    </g>
    <path id="Path_138" data-name="Path 138" d="M30.679,26.605s2.917,8.588-1.872,8.588c-3.326,0-2.917-3.631-2.917-3.631s-9.283,15.1,4.789,15.1c2.851,0,7.82-.578,7.82-8.314s-4.314-10.844-7.82-11.745" transform="translate(21.323 30.039)" fill="#fff432"/>
  </g>
</svg>
